<svg width="58" height="50" viewBox="0 0 58 50" fill="none" xmlns="http://www.w3.org/2000/svg">
<path d="M55.8668 18.8002C57.1296 18.8002 58.1257 17.6697 57.9025 16.3677C57.7268 15.3468 56.7803 14.6524 55.747 14.6669C52.4258 14.7165 47.6002 16.81 47.6002 22.4541C47.6002 25.5561 48.9993 27.7055 50.1215 29.4311C51.254 31.1692 52.0848 32.4485 51.5868 34.3705C51.1114 36.2036 49.3816 37.425 47.4865 37.3981C45.8414 37.3754 44.5746 36.8587 43.6156 35.8233C41.5428 33.5831 41.2968 29.3299 41.3836 27.5339C42.6505 26.3993 43.4668 24.7667 43.4668 22.9335C43.4668 20.7284 42.2992 18.8002 40.5611 17.7007C41.2638 15.8614 41.6585 13.9001 41.6585 11.9533C41.6585 4.53606 35.9917 0.200195 29.0002 0.200195C22.0086 0.200195 16.3418 4.53606 16.3418 11.9554C16.3418 13.9022 16.7386 15.8635 17.4392 17.7028C15.7012 18.8002 14.5335 20.7284 14.5335 22.9335C14.5335 24.7667 15.3498 26.3993 16.6188 27.536C16.7056 29.3299 16.4596 33.5831 14.3868 35.8254C13.4278 36.8608 12.161 37.3775 10.5159 37.4002C8.62076 37.4271 6.89096 36.2057 6.41562 34.3725C5.91549 32.4505 6.74629 31.1713 7.88089 29.4332C9.00102 27.7055 10.4002 25.5561 10.4002 22.4541C10.4002 16.81 5.57449 14.7165 2.25336 14.6669C1.22002 14.6524 0.273488 15.3468 0.0978217 16.3657C-0.125378 17.6697 0.870755 18.8002 2.13349 18.8002C2.30296 18.8002 6.26682 18.8415 6.26682 22.4541C6.26682 24.3306 5.40916 25.6491 4.41509 27.1785C3.10276 29.1955 1.57549 31.5412 2.33809 35.1496C3.09862 38.7559 6.75042 41.5439 10.4353 41.5335C13.3038 41.5253 15.6598 40.5457 17.433 38.6175C18.3734 37.5986 19.169 35.7531 19.7002 34.2775C20.0763 33.2317 21.3804 32.8845 22.2194 33.6141L22.2318 33.6244C22.61 33.953 22.8064 34.4449 22.7712 34.945C22.3104 41.5914 16.315 45.6669 10.7432 45.6669C7.54816 45.6669 4.09476 43.687 4.06169 43.6663C3.07796 43.098 1.81109 43.4266 1.23862 44.4124C0.666155 45.3982 0.994755 46.6609 1.97849 47.2355C2.15829 47.3409 6.41149 49.8002 10.7432 49.8002C17.6232 49.8002 24.966 45.1109 26.5842 37.3382C26.824 36.1809 27.8242 35.3397 29.0043 35.3397H29.0539C30.2009 35.3397 31.1722 36.154 31.4016 37.2783C32.9971 45.0861 40.3606 49.8002 47.2571 49.8002C51.5888 49.8002 55.842 47.3409 56.0218 47.2355C57.0076 46.6589 57.3383 45.392 56.7617 44.4083C56.183 43.4225 54.9182 43.0918 53.9345 43.6684C53.9014 43.687 50.4294 45.6669 47.2571 45.6669C41.6854 45.6669 35.69 41.5914 35.2291 34.945C35.194 34.4449 35.3903 33.953 35.7685 33.6244L35.7809 33.6141C36.62 32.8845 37.924 33.2317 38.3002 34.2775C38.8334 35.7551 39.629 37.5986 40.5673 38.6175C42.3426 40.5436 44.6986 41.5253 47.565 41.5335C51.2499 41.5439 54.8996 38.7559 55.6622 35.1496C56.4248 31.5412 54.8996 29.1955 53.5852 27.1785C52.5912 25.6491 51.7335 24.3306 51.7335 22.4541C51.7335 18.8415 55.6974 18.8002 55.8668 18.8002ZM20.7335 25.0002C19.5927 25.0002 18.6668 24.0743 18.6668 22.9335C18.6668 21.7927 19.5927 20.8669 20.7335 20.8669C21.8743 20.8669 22.8002 21.7927 22.8002 22.9335C22.8002 24.0743 21.8743 25.0002 20.7335 25.0002ZM37.2668 25.0002C36.126 25.0002 35.2002 24.0743 35.2002 22.9335C35.2002 21.7927 36.126 20.8669 37.2668 20.8669C38.4076 20.8669 39.3335 21.7927 39.3335 22.9335C39.3335 24.0743 38.4076 25.0002 37.2668 25.0002Z" fill="black"/>
</svg>
